<?xml version="1.0" standalone="no"?>
<!DOCTYPE svg PUBLIC "-//W3C//DTD SVG 20010904//EN"
 "http://www.w3.org/TR/2001/REC-SVG-20010904/DTD/svg10.dtd">
<svg version="1.0" xmlns="http://www.w3.org/2000/svg"
 width="1280.000000pt" height="641.000000pt" viewBox="0 0 1280.000000 641.000000"
 preserveAspectRatio="xMidYMid meet">

<g transform="translate(0.000000,641.000000) scale(0.100000,-0.100000)"
fill="#000000" stroke="none">
<path d="M0 6271 c0 -154 -4 -147 65 -131 22 5 58 10 80 11 22 1 45 7 52 12 7
5 20 7 30 5 10 -2 23 3 29 11 13 17 41 22 127 22 41 0 60 4 64 14 6 18 98 21
109 4 8 -14 72 -2 92 17 12 13 17 13 38 -1 29 -19 34 -19 34 -1 0 7 9 16 21
19 18 5 20 2 15 -19 -7 -28 2 -74 15 -74 18 0 22 32 9 71 -13 38 -12 41 13 67
15 16 27 33 27 39 0 16 71 14 87 -2 7 -8 13 -21 13 -30 0 -9 5 -25 10 -36 8
-13 7 -19 0 -19 -16 0 -8 -72 8 -78 11 -4 39 53 34 71 -1 4 6 7 15 7 9 0 25 8
35 17 17 15 21 15 54 0 43 -21 58 -21 73 -3 7 8 26 18 42 21 33 7 33 6 18 75
l-11 50 -52 0 c-29 0 -57 -5 -63 -11 -9 -9 -23 -9 -55 -1 -26 6 -231 11 -535
12 l-493 1 0 -140z"/>
<path d="M1870 6396 c0 -8 11 -23 25 -34 14 -11 25 -25 25 -31 0 -6 23 -32 51
-58 73 -69 80 -86 83 -218 2 -63 0 -112 -4 -110 -4 3 -18 -3 -31 -14 -18 -15
-22 -27 -21 -67 2 -47 36 -134 52 -134 16 0 65 -85 83 -142 14 -45 22 -58 38
-58 16 0 18 -4 12 -27 -4 -16 -7 -37 -7 -48 -1 -11 -5 -23 -10 -27 -13 -8 -25
-115 -18 -151 3 -21 7 -25 14 -15 6 9 7 3 3 -17 -4 -16 -11 -31 -16 -33 -14
-6 -10 -68 5 -82 8 -6 20 -28 26 -48 15 -52 53 -122 65 -122 29 -1 -46 -29
-78 -30 -40 0 -87 -35 -87 -64 0 -9 -9 -21 -20 -28 -26 -17 -25 -42 3 -62 l22
-16 -27 -23 c-32 -26 -34 -35 -14 -51 27 -22 59 -174 58 -273 0 -51 3 -95 9
-98 5 -4 9 -1 9 4 0 6 7 11 15 11 8 0 15 -9 15 -20 0 -11 6 -20 14 -20 7 0 26
-17 42 -37 39 -51 115 -123 124 -118 4 3 8 27 9 55 1 55 21 104 49 119 9 5 37
12 63 16 36 5 52 3 82 -15 46 -27 87 -101 68 -124 -7 -9 -12 -42 -11 -83 1
-111 -10 -193 -37 -271 -14 -40 -23 -76 -20 -79 4 -3 2 -14 -4 -24 -10 -20
-49 -27 -49 -9 0 6 -14 10 -31 10 -17 0 -28 -4 -24 -10 3 -6 -1 -7 -9 -4 -9 3
-16 14 -16 23 0 9 -13 40 -29 69 -28 50 -29 53 -10 62 16 9 17 14 7 30 -17 27
-48 8 -48 -30 0 -19 -4 -28 -12 -26 -42 13 -69 16 -63 6 3 -5 -3 -10 -14 -10
-11 0 -25 -9 -32 -21 -6 -11 -30 -29 -53 -40 -26 -11 -54 -34 -71 -59 -26 -38
-27 -41 -11 -64 20 -31 20 -46 1 -46 -8 0 -21 -13 -30 -30 -9 -16 -20 -30 -26
-30 -6 0 -7 -4 -4 -10 3 -5 2 -10 -4 -10 -5 0 -11 6 -14 13 -4 10 -7 10 -18 0
-9 -9 -9 -13 -1 -13 6 0 10 -12 7 -30 -2 -16 1 -60 7 -97 5 -38 11 -82 13
-100 3 -31 52 -93 73 -93 6 0 12 -5 14 -10 2 -6 29 -14 60 -17 55 -5 58 -4 69
21 7 14 16 26 21 26 4 0 8 18 8 40 0 32 13 79 27 99 2 2 18 -3 35 -12 36 -17
68 -30 81 -31 4 -1 12 -7 17 -15 4 -8 14 -16 22 -17 7 -2 23 -6 34 -9 20 -6
22 -3 21 49 -1 31 -5 56 -10 56 -5 0 -4 7 3 15 11 13 15 13 21 3 6 -10 12 -8
23 7 13 18 16 19 33 4 10 -9 24 -14 30 -12 15 5 49 -18 48 -32 -2 -29 -18 -53
-43 -64 -82 -38 -98 -47 -110 -58 -9 -9 -8 -13 9 -18 12 -4 18 -12 15 -21 -5
-14 20 -84 31 -84 3 0 12 8 19 18 13 16 13 16 14 -3 1 -17 3 -15 16 8 8 16 14
33 11 40 -4 13 36 37 63 37 28 0 45 -27 30 -45 -7 -9 -19 -14 -27 -11 -13 5
-18 -11 -14 -48 1 -10 -8 -34 -19 -53 -22 -38 -20 -88 5 -129 12 -19 10 -25
-18 -60 -17 -21 -42 -48 -54 -59 -13 -11 -23 -26 -23 -33 0 -7 -4 -12 -10 -12
-15 0 -35 -43 -21 -48 26 -9 7 -20 -43 -26 -49 -7 -56 -11 -70 -40 -8 -18 -27
-38 -41 -44 -15 -7 -25 -20 -25 -32 0 -11 -4 -20 -8 -20 -4 0 -12 -15 -17 -33
-8 -26 -16 -33 -40 -35 -44 -5 -52 -19 -19 -34 16 -7 39 -25 51 -39 19 -22 29
-25 66 -22 35 3 48 0 71 -22 15 -14 24 -30 20 -36 -3 -6 0 -22 7 -36 10 -19
10 -28 1 -43 -10 -17 -7 -19 36 -25 56 -7 71 -10 95 -20 13 -5 17 -2 17 13 0
11 8 28 18 38 9 10 17 27 17 37 0 11 6 22 13 24 6 3 12 -2 12 -11 0 -11 9 -16
30 -16 28 0 30 3 30 36 0 29 3 35 16 30 9 -3 18 -6 20 -6 2 0 4 -11 4 -24 0
-32 36 -77 56 -69 22 8 36 -17 19 -34 -17 -16 -32 -17 -38 0 -3 6 -6 2 -6 -10
-1 -12 -5 -32 -10 -45 -5 -13 -12 -35 -15 -50 -5 -20 -13 -28 -29 -28 -18 0
-19 -2 -7 -10 13 -8 12 -10 -3 -10 -10 0 -25 7 -34 16 -12 11 -19 12 -27 4
-13 -13 17 -40 44 -40 41 0 28 -25 -23 -48 -21 -9 -27 -17 -22 -31 3 -10 -1
-24 -10 -31 -8 -7 -15 -24 -15 -37 0 -38 -68 -186 -102 -223 -10 -11 -18 -24
-18 -29 0 -5 -10 -17 -21 -25 -12 -8 -23 -23 -24 -33 -1 -10 -5 -27 -10 -37
-5 -11 -4 -31 3 -49 8 -22 8 -35 0 -50 -19 -35 -38 -120 -38 -168 0 -48 18
-99 36 -99 6 0 17 -19 24 -43 7 -23 25 -55 40 -72 14 -16 35 -50 45 -75 10
-25 26 -56 35 -70 32 -49 31 -58 -10 -91 -22 -18 -37 -36 -34 -40 3 -5 1 -9
-4 -9 -6 0 -8 -9 -5 -20 3 -11 -1 -27 -8 -36 -7 -9 -12 -32 -10 -50 3 -38 -25
-134 -40 -134 -5 0 -11 -10 -14 -23 -3 -12 -19 -31 -36 -42 -32 -22 -64 -79
-54 -96 4 -6 -2 -13 -14 -16 -12 -3 -21 -13 -21 -24 0 -10 -8 -32 -19 -50 -10
-17 -16 -39 -14 -50 3 -11 0 -19 -6 -19 -7 0 -9 -5 -6 -10 9 -15 -15 -42 -31
-36 -24 9 -28 -77 -8 -144 l18 -60 1607 0 c1416 0 1608 2 1619 15 16 19 54 19
70 0 10 -12 37 -15 126 -15 l114 0 40 44 c22 24 56 65 76 90 19 25 39 46 44
46 12 0 13 -37 2 -42 -4 -1 -31 -33 -60 -71 l-52 -67 1645 0 1644 0 15 29 c9
16 22 31 31 34 28 11 17 44 -20 61 -32 15 -40 36 -14 36 20 0 69 44 69 63 0
10 4 27 10 37 12 22 3 50 -15 50 -7 0 -16 -7 -19 -16 -10 -25 -26 -6 -26 32 0
46 43 114 73 115 12 0 16 3 10 6 -14 5 -7 54 9 64 6 4 4 15 -4 28 -10 17 -19
20 -40 15 -46 -9 -32 14 15 27 23 6 48 12 55 12 28 1 -9 21 -40 21 -23 1 -35
7 -44 24 -6 13 -15 23 -20 22 -19 -3 -14 19 5 25 27 8 27 25 0 25 -31 0 -69
48 -69 88 0 36 -25 92 -40 92 -18 0 -11 55 8 69 16 11 17 20 10 60 -5 25 -14
61 -19 79 -6 18 -9 74 -8 125 l3 92 -37 18 c-23 11 -44 30 -53 51 -15 30 -15
35 1 65 13 27 21 32 40 27 29 -7 40 7 25 34 -7 13 -7 20 0 20 5 0 10 5 10 10
0 6 -6 10 -14 10 -30 0 -58 153 -30 164 23 9 16 31 -21 70 -42 44 -43 58 -10
76 35 19 43 50 18 70 -11 9 -23 25 -27 36 -5 16 2 23 34 37 39 17 51 39 29 53
-8 5 -9 26 -5 68 4 33 8 75 9 91 1 17 5 35 8 40 4 6 10 26 14 45 9 49 30 93
55 115 12 11 20 31 20 52 0 33 -47 133 -62 133 -5 0 -13 12 -19 27 -8 21 -6
30 10 47 12 13 20 34 19 56 -1 40 -13 60 -38 60 -14 0 -16 8 -13 48 5 56 -13
96 -45 100 -12 2 -22 10 -22 17 0 14 -52 57 -82 68 -10 3 -20 18 -24 33 -8 32
18 58 50 48 19 -6 19 -5 4 10 -9 9 -21 16 -26 16 -13 0 -32 47 -32 81 0 16 -7
43 -15 60 -12 22 -15 51 -12 112 3 45 8 91 13 101 5 13 0 42 -14 82 -24 69
-28 134 -10 152 7 7 26 12 43 12 43 0 75 -35 75 -82 0 -32 3 -37 30 -43 39 -9
73 13 96 60 13 27 14 39 5 48 -6 6 -11 20 -11 32 0 11 -6 32 -14 47 -11 20
-11 30 -3 42 16 20 123 76 145 76 20 0 62 39 62 58 0 8 22 11 67 11 50 -1 77
-7 112 -26 36 -19 56 -24 93 -20 31 3 55 -1 68 -10 11 -8 29 -11 40 -8 11 4
97 8 192 9 162 3 173 2 214 -20 24 -13 59 -26 79 -30 19 -3 47 -15 60 -26 21
-16 45 -21 126 -24 57 -2 107 -8 115 -15 24 -19 181 -7 233 19 25 12 59 22 75
22 19 0 43 10 60 25 16 14 32 25 36 25 22 0 110 -34 110 -43 0 -6 5 -5 13 1 6
6 17 10 22 10 6 0 15 8 20 18 6 9 23 32 39 49 16 18 43 59 60 91 23 42 38 60
58 65 25 6 28 4 34 -26 3 -18 1 -50 -5 -71 -12 -44 -14 -143 -3 -161 4 -6 26
-19 49 -28 106 -42 190 42 148 147 -9 23 48 78 81 78 28 0 44 24 44 65 0 17
69 55 100 55 13 0 24 -10 31 -27 5 -14 19 -34 29 -43 13 -11 20 -30 20 -51 0
-19 7 -45 16 -57 8 -12 18 -44 21 -70 3 -26 8 -49 12 -52 5 -3 11 -21 15 -40
9 -45 43 -70 110 -79 58 -8 96 1 96 21 1 22 37 58 59 58 12 0 24 -8 28 -17 13
-39 59 -102 81 -112 13 -6 36 -11 51 -11 31 0 59 24 41 35 -5 3 -10 30 -10 59
0 51 1 52 36 65 33 12 38 11 72 -13 20 -14 46 -39 57 -55 17 -26 51 -47 105
-65 8 -2 2 -5 -15 -6 -27 -1 -28 -2 -9 -10 12 -5 32 -23 44 -40 13 -19 28 -29
37 -26 8 3 11 1 8 -4 -3 -5 5 -12 19 -16 29 -7 69 3 61 16 -9 14 16 23 28 11
15 -15 77 -14 110 2 l27 12 0 1388 0 1387 -5465 0 c-4728 0 -5465 -2 -5465
-14z m4234 -256 c4 0 6 -7 3 -15 -4 -8 -2 -17 3 -20 6 -4 10 -10 10 -15 0 -10
-56 -30 -64 -23 -3 4 -6 1 -6 -5 0 -15 18 -25 60 -32 21 -3 35 -11 35 -20 0
-23 -35 -24 -65 -2 l-27 20 -29 -23 c-23 -19 -27 -26 -16 -36 6 -7 12 -27 12
-44 0 -34 -28 -55 -73 -55 -26 0 -49 -13 -47 -26 0 -5 -8 -10 -19 -12 -11 -2
-33 -20 -50 -41 -26 -32 -40 -39 -76 -43 -52 -6 -110 3 -110 18 0 5 -9 22 -21
38 -19 26 -22 27 -36 12 -21 -20 -28 -20 -28 -1 0 8 -7 16 -15 16 -8 1 -20 2
-26 3 -5 0 -18 12 -28 25 -17 22 -43 30 -141 45 -8 1 -25 8 -38 15 -28 15 -54
8 -46 -13 3 -9 9 -14 12 -13 4 1 7 -2 7 -8 0 -5 -9 -11 -19 -13 -11 -1 -27 -9
-37 -17 -9 -9 -24 -13 -33 -9 -12 5 -16 0 -16 -19 0 -14 -2 -32 -6 -40 -3 -8
7 -28 21 -45 l26 -31 -26 -40 c-15 -22 -33 -42 -41 -45 -19 -7 -18 -45 1 -52
23 -9 20 -48 -3 -42 -31 8 -95 -43 -105 -82 -6 -28 -20 -43 -66 -74 -41 -27
-61 -46 -64 -65 -3 -14 -1 -27 4 -29 11 -4 12 -42 1 -42 -5 0 -14 -10 -21 -23
-17 -33 -57 -33 -78 -1 -14 22 -19 24 -27 12 -6 -8 -19 -17 -29 -21 -32 -12
-13 -32 32 -33 23 0 47 -6 53 -12 16 -16 2 -41 -28 -48 -15 -4 -35 -15 -45
-25 -10 -10 -27 -16 -38 -14 -11 2 -22 -2 -24 -10 -4 -9 1 -11 16 -8 19 4 19
3 -3 -9 -37 -20 -37 -46 1 -82 18 -18 34 -43 36 -56 2 -14 11 -29 21 -35 19
-11 112 -32 177 -39 38 -5 41 -3 41 17 -1 18 5 22 40 24 52 4 85 -21 104 -76
7 -23 15 -41 18 -41 2 0 22 20 44 45 49 56 90 66 148 37 38 -19 80 -20 80 -2
0 4 15 13 33 20 74 29 87 35 87 45 0 5 4 16 9 24 13 20 48 -3 65 -42 17 -43
60 -71 95 -63 14 4 43 8 65 10 21 2 42 10 47 17 4 7 11 10 15 6 4 -4 14 -1 22
6 20 16 157 12 183 -7 17 -11 18 -14 4 -19 -8 -4 -28 -4 -44 -1 -39 8 -67 -9
-74 -46 -10 -48 0 -60 49 -60 31 0 50 -6 64 -20 16 -16 25 -18 40 -10 10 5 26
7 34 4 9 -3 33 7 57 24 34 26 45 29 71 21 30 -8 60 -29 85 -57 6 -7 25 -15 42
-17 25 -3 33 1 43 23 11 22 21 28 53 30 22 2 59 12 82 22 24 11 49 20 57 20
33 0 46 13 46 46 0 30 4 35 30 41 36 7 40 35 9 56 -18 13 -19 19 -10 53 9 34
8 41 -11 61 -16 17 -18 23 -7 24 9 0 10 2 2 5 -7 3 -20 1 -31 -5 -13 -7 -19
-7 -20 2 0 7 -2 20 -4 31 -2 12 4 20 15 21 9 2 15 0 12 -5 -3 -4 2 -11 11 -14
8 -3 13 -2 10 3 -7 11 37 23 57 15 10 -3 17 2 20 13 4 15 5 14 6 -4 0 -12 6
-25 11 -28 6 -4 10 -3 9 2 -5 27 5 43 37 62 19 12 42 21 50 21 26 0 9 25 -22
31 l-29 7 30 1 c21 1 26 4 16 10 -8 5 -27 3 -47 -5 -19 -8 -45 -12 -59 -8 -30
7 -33 -6 -5 -24 12 -7 18 -17 15 -22 -4 -6 -11 -8 -16 -5 -5 4 -9 1 -9 -6 0
-8 -14 -9 -47 -4 -27 4 -54 8 -60 8 -7 0 -13 4 -13 9 0 4 -3 7 -7 7 -21 -3
-31 3 -36 21 -3 11 -1 20 4 20 5 0 9 17 9 38 0 21 7 47 16 58 13 16 15 16 10
2 -5 -16 3 -18 64 -18 39 0 78 -4 88 -9 37 -19 109 -33 159 -32 28 1 54 -3 58
-9 3 -5 16 -10 29 -10 15 0 27 -9 36 -27 17 -36 20 -53 9 -53 -4 0 -6 -7 -3
-15 4 -8 1 -15 -5 -15 -6 0 -11 9 -11 20 0 20 -13 25 -58 21 -13 -1 -30 3 -37
9 -19 16 -7 -27 14 -52 9 -10 17 -23 17 -28 1 -6 2 -14 3 -20 0 -5 14 -7 31
-3 17 3 30 1 30 -5 0 -5 9 -12 20 -15 11 -3 23 -13 26 -24 4 -10 14 -26 22
-35 8 -10 12 -18 9 -18 -4 0 -1 -12 5 -27 6 -16 14 -64 17 -108 6 -80 6 -80
36 -83 16 -2 47 -19 67 -38 34 -30 57 -38 105 -37 7 1 16 -15 19 -35 6 -31 3
-39 -21 -60 -16 -13 -36 -21 -46 -19 -22 6 -59 -19 -59 -39 0 -9 14 -35 30
-59 17 -25 30 -57 30 -75 0 -23 6 -33 23 -39 13 -5 24 -17 24 -26 0 -9 -11
-22 -24 -28 -12 -5 -23 -19 -23 -29 0 -12 5 -17 13 -14 6 3 19 8 27 12 18 6
39 62 44 116 2 29 0 35 -12 31 -21 -9 -6 38 19 56 10 7 19 21 19 30 0 9 7 25
16 36 12 17 32 75 38 112 4 22 16 27 16 7 0 -11 4 -24 9 -29 6 -6 11 -22 13
-37 2 -15 7 -30 11 -34 23 -23 -8 -207 -42 -248 -6 -7 -24 -53 -41 -104 -34
-101 -70 -162 -141 -234 -58 -60 -74 -62 -65 -9 l6 38 -67 -2 c-49 -1 -62 1
-52 9 18 13 13 46 -6 46 -8 0 -23 -14 -35 -30 -12 -17 -25 -28 -30 -25 -12 8
-62 -83 -56 -103 3 -9 2 -23 -3 -30 -4 -7 -4 -38 1 -69 8 -54 8 -57 -22 -88
-16 -17 -30 -36 -30 -43 0 -15 23 -15 38 0 10 9 16 9 28 -4 15 -15 14 -19 -11
-52 -15 -20 -35 -36 -45 -36 -17 0 -34 -31 -31 -56 2 -17 -97 -54 -145 -54
-56 0 -57 16 -1 30 123 32 138 41 108 62 l-22 15 26 17 c30 20 32 36 4 43 -12
4 -22 17 -26 34 -5 26 -10 29 -44 29 -29 0 -37 3 -33 14 3 8 -4 25 -15 38 -26
27 -23 41 10 48 13 3 25 14 27 25 2 11 8 31 15 44 10 19 8 25 -8 37 -10 8 -27
12 -37 8 -13 -4 -21 2 -27 18 -12 31 -27 43 -76 58 -22 7 -54 23 -72 36 -17
13 -39 24 -47 24 -9 0 -16 5 -16 11 0 5 -4 8 -9 5 -19 -12 -115 17 -139 41
-21 21 -23 30 -18 71 5 40 2 51 -19 77 -14 17 -25 24 -25 18 0 -18 -28 -16
-46 2 -11 10 -30 13 -64 10 -44 -3 -52 -1 -70 22 -11 14 -20 34 -20 44 0 21
-39 100 -54 111 -15 11 -104 10 -110 -1 -3 -4 -19 -11 -36 -14 -20 -5 -34 -15
-40 -32 -5 -14 -21 -30 -35 -35 -14 -5 -28 -17 -31 -25 -4 -9 -18 -15 -35 -15
-32 0 -32 5 -8 87 13 41 -6 73 -41 73 -14 0 -52 -14 -85 -31 -113 -56 -335
-61 -392 -7 -13 12 -23 27 -23 34 0 7 -16 21 -35 33 -19 11 -35 28 -35 37 0 9
-9 27 -20 41 -11 14 -20 32 -20 41 0 11 -7 13 -27 7 -16 -3 -45 -9 -66 -12
-42 -6 -60 -30 -70 -96 -7 -42 18 -110 49 -139 55 -51 70 -80 78 -145 2 -25
-2 -45 -13 -59 -18 -22 -18 -22 3 -170 2 -17 9 -41 16 -53 12 -24 16 -103 5
-121 -3 -5 -1 -10 6 -10 14 0 38 -30 39 -47 0 -7 -8 -13 -18 -13 -24 0 -172
89 -221 133 -23 20 -45 37 -50 37 -9 0 -100 119 -120 158 -16 31 -35 28 -48
-9 -10 -25 -17 -30 -39 -27 -23 3 -30 11 -46 57 -23 68 -11 126 28 141 13 5
24 13 24 17 0 5 -11 58 -25 118 -44 196 -33 422 37 714 17 73 41 131 68 166 4
6 10 29 14 52 6 41 93 206 144 273 38 49 223 232 279 275 25 19 63 40 83 45
23 6 40 18 43 29 7 29 126 82 189 86 56 3 117 24 137 48 8 11 24 13 51 10 36
-5 40 -3 40 15 0 25 43 41 63 23 8 -6 34 -10 58 -10 24 1 54 -1 65 -4 12 -3
33 1 48 8 35 18 64 22 111 13 22 -4 44 -7 49 -8z m-2690 -359 c19 -7 19 -8 -3
-14 -27 -7 -53 1 -45 14 6 11 21 11 48 0z m9016 -6 c0 -8 -6 -15 -14 -15 -17
0 -28 14 -19 24 12 12 33 6 33 -9z m-8850 -5 c0 -5 -4 -10 -10 -10 -5 0 -10 5
-10 10 0 6 5 10 10 10 6 0 10 -4 10 -10z m3495 -111 c4 -5 18 -14 31 -20 26
-9 63 -77 64 -115 0 -11 -6 -28 -13 -38 -13 -17 -17 -18 -57 -4 -46 15 -48 17
-81 91 -18 39 -20 53 -11 73 12 25 55 34 67 13z m-4500 -221 c12 -13 34 -33
49 -45 16 -13 24 -27 20 -37 -4 -10 2 -19 19 -27 26 -12 53 -74 36 -85 -17
-10 -136 122 -146 163 -6 26 -14 38 -26 37 -9 -1 -14 2 -11 7 9 16 36 10 59
-13z m3326 -48 c10 -6 19 -16 19 -23 0 -7 11 -42 25 -77 l25 -64 -29 -29 c-24
-25 -32 -27 -50 -18 -11 7 -21 16 -21 21 0 6 -6 10 -13 10 -8 0 -19 11 -26 23
-23 43 12 167 47 167 2 0 12 -5 23 -10z m1169 -151 c0 -6 -4 -7 -10 -4 -5 3
-10 11 -10 16 0 6 5 7 10 4 6 -3 10 -11 10 -16z m-1776 -98 c3 -5 -1 -11 -9
-14 -9 -4 -12 -1 -8 9 6 16 10 17 17 5z m1866 -17 c0 -13 -8 -24 -21 -27 -17
-5 -18 -3 -7 10 10 13 10 17 0 20 -16 6 -7 20 13 20 9 0 15 -9 15 -23z m-1911
-10 c1 -10 10 -27 18 -36 16 -18 9 -41 -26 -72 -20 -18 -21 -18 -56 4 -41 25
-43 42 -12 87 31 45 69 54 76 17z m891 -68 c0 -11 -19 -15 -25 -6 -3 5 1 10 9
10 9 0 16 -2 16 -4z m467 -101 c7 -22 -23 -48 -45 -41 -21 7 -30 35 -15 50 10
10 56 3 60 -9z m811 -62 c-2 -10 -11 -16 -19 -14 -8 2 -20 4 -26 4 -7 0 -13 4
-13 8 0 7 14 11 53 18 5 0 7 -7 5 -16z m-1293 -33 c3 -5 -3 -10 -15 -10 -12 0
-18 5 -15 10 3 6 10 10 15 10 5 0 12 -4 15 -10z m225 -31 c0 -5 -7 -9 -15 -9
-8 0 -15 7 -15 15 0 9 6 12 15 9 8 -4 15 -10 15 -15z m832 -1124 c-1 -22 -3
-58 -5 -80 -3 -54 -29 -57 -82 -11 -34 30 -38 38 -29 53 6 10 21 19 33 21 11
2 21 8 21 14 0 19 33 49 49 46 12 -3 15 -14 13 -43z m-2726 20 c-22 -16 -72
-20 -80 -6 -10 15 6 21 53 21 43 -1 45 -2 27 -15z m-101 -5 c-3 -5 -13 -10
-21 -10 -8 0 -12 5 -9 10 3 6 13 10 21 10 8 0 12 -4 9 -10z m-1927 -100 c-1
-3 2 -13 6 -22 5 -11 2 -23 -9 -34 -20 -20 -23 -17 -28 28 -3 30 -1 36 14 35
10 -1 17 -4 17 -7z m4323 -13 c9 -7 14 -18 11 -26 -3 -10 4 -12 37 -6 27 4 41
3 41 -4 0 -6 -10 -11 -23 -11 -13 0 -28 -5 -34 -11 -7 -7 -19 -8 -30 -4 -10 5
-21 9 -25 9 -3 1 -9 4 -13 8 -4 4 -14 4 -23 1 -15 -4 -15 -3 1 10 9 8 17 22
17 31 0 19 18 20 41 3z m-938 -64 c27 -8 20 -23 -12 -23 -29 0 -57 21 -44 34
4 4 14 4 22 0 9 -3 24 -9 34 -11z m499 11 c11 -10 -35 -103 -53 -107 -33 -9
-38 18 -14 77 11 27 21 36 38 36 13 0 26 -3 29 -6z m68 -31 c0 -21 -37 -93
-47 -93 -16 0 -16 2 2 36 8 16 15 37 15 47 0 9 7 17 15 17 8 0 15 -3 15 -7z
m-479 -66 c-1 -12 -15 -9 -19 4 -3 6 1 10 8 8 6 -3 11 -8 11 -12z m-3723 -23
c26 -18 32 -84 8 -84 -36 0 -66 20 -66 44 0 55 18 68 58 40z m862 7 c0 -5 -11
-18 -25 -29 -14 -11 -25 -23 -25 -27 0 -4 -9 -18 -20 -32 -24 -31 -27 -73 -5
-73 17 0 20 -17 4 -22 -6 -2 58 -3 143 -2 168 1 203 -7 214 -52 4 -15 21 -32
45 -44 22 -11 57 -29 78 -40 47 -24 101 -76 101 -98 0 -16 47 -72 61 -72 4 0
9 12 11 27 6 52 45 37 96 -34 12 -18 27 -44 32 -58 5 -14 16 -25 24 -25 7 0
19 -7 27 -16 8 -10 21 -13 37 -9 33 8 82 -13 82 -35 0 -19 39 -32 94 -31 17 0
38 -6 47 -15 15 -13 17 -13 22 6 5 18 13 20 75 20 39 0 74 5 77 10 9 14 56 12
85 -5 l25 -14 -46 -20 c-26 -12 -49 -27 -52 -35 -3 -7 -16 -16 -29 -19 -13 -3
-52 -17 -87 -32 -50 -21 -74 -26 -108 -21 -38 5 -45 3 -59 -19 -18 -27 -12
-45 15 -45 10 0 38 -16 62 -35 24 -19 50 -35 57 -35 27 0 9 -16 -31 -28 -46
-14 -95 -8 -112 13 -14 17 -35 20 -58 10 -32 -13 -31 4 2 34 17 16 31 33 31
38 0 6 -18 17 -40 26 -33 13 -41 13 -51 1 -6 -8 -22 -14 -36 -14 -22 0 -24 3
-21 41 2 29 -1 43 -11 47 -12 4 -13 -4 -6 -44 19 -122 21 -143 13 -138 -4 3
-24 0 -43 -7 -30 -11 -37 -11 -55 6 -16 15 -20 27 -16 50 10 52 -5 58 -52 18
-23 -19 -42 -39 -42 -43 0 -5 18 -7 39 -5 28 2 41 -1 45 -12 10 -26 -3 -33
-61 -33 -31 0 -73 -5 -94 -12 -49 -14 -68 1 -100 80 -13 31 -36 79 -51 105
-15 26 -28 51 -28 56 0 4 -11 18 -25 31 -13 12 -45 53 -70 91 -25 37 -67 84
-95 104 -58 42 -64 57 -54 133 15 123 61 146 137 67 48 -49 67 -56 67 -25 0
11 6 23 13 26 26 10 14 34 -19 40 -18 3 -38 12 -45 20 -6 8 -23 14 -38 14 -14
1 -37 7 -50 14 -17 10 -35 11 -67 4 -33 -7 -55 -6 -88 5 -30 10 -47 12 -54 5
-15 -15 -63 25 -91 77 -25 47 -22 73 4 39 8 -10 15 -14 15 -7 0 15 108 99 135
106 33 8 45 7 45 -2z m2919 -27 c-12 -15 -39 -8 -39 11 0 18 22 25 38 12 9 -7
9 -13 1 -23z m517 1 c-22 -16 -57 -21 -40 -6 7 8 29 15 54 20 3 0 -4 -6 -14
-14z m-3651 -15 c3 -5 1 -10 -4 -10 -6 0 -11 5 -11 10 0 6 2 10 4 10 3 0 8 -4
11 -10z m900 -9 c23 -3 -47 -48 -185 -117 -25 -12 -61 -37 -80 -54 -43 -38
-77 -48 -96 -28 -20 20 -10 40 33 63 21 11 53 36 73 54 61 60 122 88 187 86
32 -1 62 -3 68 -4z m600 -1 c4 -6 -5 -10 -19 -10 -14 0 -26 5 -26 10 0 6 9 10
19 10 11 0 23 -4 26 -10z m1755 -41 c0 -30 -6 -34 -34 -23 -20 8 -20 28 0 48
21 21 34 12 34 -25z m210 4 c-19 -65 -24 -70 -48 -54 -17 10 -6 58 17 71 30
18 40 12 31 -17z m-1829 -26 c-1 -4 -3 -7 -6 -7 -40 0 -40 0 -25 10 16 10 32
9 31 -3z m-1201 -15 c0 -13 -12 -22 -22 -16 -10 6 -1 24 13 24 5 0 9 -4 9 -8z
m2846 -58 c18 -14 16 -15 -25 -10 -24 2 -48 9 -54 15 -18 18 56 13 79 -5z
m-1223 -98 c3 -8 3 -17 0 -20 -7 -7 -33 13 -33 25 0 15 27 10 33 -5z m1077
-16 c0 -5 -4 -10 -10 -10 -5 0 -10 5 -10 10 0 6 5 10 10 10 6 0 10 -4 10 -10z
m-1015 -50 c7 0 18 -7 25 -15 10 -12 10 -15 0 -15 -17 0 -50 30 -49 44 0 6 3
6 6 -1 2 -7 10 -13 18 -13z m80 -50 c-5 -8 -11 -8 -17 -2 -6 6 -7 16 -3 22 5
8 11 8 17 2 6 -6 7 -16 3 -22z m2550 -160 c0 -17 -84 -33 -150 -28 -37 3 -39
4 -18 15 23 14 115 32 148 30 11 -1 20 -9 20 -17z m1026 -43 c-1 -12 -15 -9
-19 4 -3 6 1 10 8 8 6 -3 11 -8 11 -12z m-1317 -31 c38 -8 73 -19 78 -24 5 -5
11 -32 12 -58 4 -66 24 -100 96 -159 34 -27 84 -72 113 -100 28 -27 57 -49 64
-47 7 2 13 -4 13 -13 0 -12 -6 -15 -22 -10 -28 9 -120 68 -137 89 -8 9 -18 16
-24 16 -10 0 -15 4 -70 54 -16 15 -32 24 -36 21 -5 -2 -16 4 -26 15 -10 11
-28 20 -39 20 -30 0 -145 56 -152 75 -7 18 20 92 43 118 9 9 17 17 17 17 1 0
32 -6 70 -14z m286 -56 c0 -5 -7 -10 -16 -10 -8 0 -12 5 -9 10 3 6 10 10 16
10 5 0 9 -4 9 -10z m674 -31 c15 -12 25 -23 22 -26 -5 -5 -86 35 -86 42 0 13
40 3 64 -16z m596 -11 c0 -5 -4 -8 -10 -8 -5 0 -10 10 -10 23 0 18 2 19 10 7
5 -8 10 -18 10 -22z m-1212 -11 c3 -14 -5 -17 -48 -17 -37 0 -50 4 -47 13 2 6
15 12 30 12 14 0 29 3 33 8 12 11 29 3 32 -16z m737 -47 c-3 -5 -10 -10 -16
-10 -5 0 -9 5 -9 10 0 6 7 10 16 10 8 0 12 -4 9 -10z m-808 -22 c13 -12 23
-26 23 -31 0 -5 8 -16 18 -23 9 -8 -5 -5 -33 6 -68 28 -100 70 -53 70 12 0 32
-10 45 -22z m1193 0 c-1 -32 -18 -40 -88 -40 -39 0 -76 3 -82 7 -21 13 1 22
54 23 30 0 63 5 73 11 25 14 43 14 43 -1z m-4508 -33 c3 -14 2 -25 -3 -25 -12
0 -30 36 -22 44 12 12 21 6 25 -19z m1988 5 c34 -18 43 -47 23 -75 -10 -13
-23 -25 -29 -25 -5 0 -19 -6 -29 -14 -18 -13 -18 -14 3 -43 32 -45 36 -77 16
-122 -10 -23 -21 -41 -26 -41 -11 0 -10 7 4 30 20 31 0 36 -27 6 -14 -15 -25
-31 -25 -35 0 -14 -38 -43 -49 -37 -16 10 -1 36 25 47 32 12 30 27 -11 90 -68
106 -65 104 -139 102 -67 -3 -97 10 -48 21 43 9 59 23 44 38 -21 21 -14 28 31
29 23 0 71 8 107 18 79 22 105 24 130 11z m-1870 -91 c23 -44 23 -84 1 -84
-13 0 -40 75 -41 113 0 25 20 11 40 -29z m-160 6 c0 -27 31 -30 50 -5 l17 23
18 -27 c10 -15 18 -43 19 -64 1 -35 0 -37 -29 -35 -73 5 -83 15 -92 86 -3 23
-1 37 6 37 6 0 11 -7 11 -15z m1450 6 c0 -11 -22 -19 -67 -23 -41 -4 -48 15
-8 23 46 10 75 10 75 0z m2070 -16 c0 -8 -4 -15 -10 -15 -5 0 -7 7 -4 15 4 8
8 15 10 15 2 0 4 -7 4 -15z m58 -41 c4 -60 -13 -49 -21 14 -4 30 -2 42 6 39 7
-2 13 -26 15 -53z m-4686 -25 c32 -34 58 -65 58 -69 0 -34 -94 -36 -123 -2
-17 20 -40 109 -32 123 13 21 42 6 97 -52z m2751 44 c-42 -8 -24 -20 37 -26
46 -4 68 -12 94 -34 43 -35 48 -47 40 -90 l-6 -34 -26 35 c-14 20 -31 36 -38
36 -7 0 -19 3 -28 6 -10 4 -16 1 -16 -9 0 -9 -4 -18 -9 -21 -15 -10 -43 5 -37
20 3 7 -4 16 -14 19 -11 3 -28 17 -39 31 -25 31 -72 32 -134 0 -40 -20 -49
-21 -58 -9 -9 10 -24 12 -56 7 -43 -6 -45 -6 -41 17 3 22 9 25 88 32 47 4 96
11 110 16 14 5 54 9 90 9 36 0 55 -3 43 -5z m-3503 -13 c0 -5 -4 -10 -10 -10
-5 0 -10 5 -10 10 0 6 5 10 10 10 6 0 10 -4 10 -10z m5370 -100 c0 -5 -7 -10
-15 -10 -8 0 -15 5 -15 10 0 6 7 10 15 10 8 0 15 -4 15 -10z m-1976 -29 c7
-11 -14 -20 -31 -13 -7 2 -13 8 -13 13 0 12 37 12 44 0z m-166 -26 c-8 -18 -8
-31 0 -48 6 -12 12 -28 14 -35 2 -8 37 -28 78 -45 65 -26 87 -31 173 -31 59
-1 97 -5 97 -11 0 -6 9 -18 20 -28 28 -23 25 -41 -15 -113 -38 -67 -72 -89
-104 -66 -9 7 -36 24 -61 39 -25 15 -73 50 -107 78 -33 27 -82 63 -108 79 -48
29 -65 53 -48 65 5 3 13 20 16 36 3 17 4 24 1 18 -3 -7 -12 -13 -19 -13 -7 0
-15 -7 -19 -15 -7 -19 -26 -20 -26 -1 0 14 99 116 112 116 4 0 2 -11 -4 -25z
m-3012 -26 c3 -6 2 -15 -4 -21 -7 -7 -14 -3 -21 11 -10 17 -9 21 3 21 8 0 18
-5 22 -11z m3302 -26 c3 -27 -2 -34 -28 -48 -29 -15 -32 -15 -61 6 -24 17 -27
24 -18 35 6 8 17 14 24 14 7 0 18 7 25 15 22 27 55 14 58 -22z m-1738 2 c9
-11 7 -19 -14 -40 -14 -14 -30 -25 -37 -25 -7 0 -28 -12 -48 -27 -35 -27 -40
-28 -141 -25 -122 3 -173 20 -168 55 4 31 51 50 146 57 45 4 85 10 89 13 3 4
41 7 83 7 56 0 81 -4 90 -15z m1985 -71 c21 -26 21 -27 2 -65 -10 -22 -23 -39
-28 -39 -15 0 -10 32 8 52 9 10 11 18 6 18 -6 0 -16 -7 -23 -15 -21 -26 -41
-19 -34 13 6 26 31 62 43 62 3 0 15 -12 26 -26z m1064 -66 c-1 -117 -17 -381
-28 -458 -5 -36 -13 -87 -17 -115 -8 -55 -19 -68 -45 -54 -26 13 -50 11 -70
-7 -9 -8 -36 -23 -60 -33 -65 -25 -108 -52 -146 -88 -53 -52 -63 -45 -56 37 6
67 5 70 -19 79 -32 12 -47 64 -57 194 -6 79 -12 103 -26 113 -22 17 -19 20 30
37 21 8 41 19 43 25 5 17 -40 15 -74 -3 -42 -22 -57 -19 -102 18 -22 17 -84
64 -138 102 -111 80 -214 164 -214 174 0 3 7 17 16 29 26 37 30 35 190 -77 78
-55 137 -99 162 -121 29 -25 38 -25 110 -1 31 10 89 24 128 31 67 12 73 15 88
46 25 54 37 42 34 -35 l-3 -69 -40 -21 -40 -21 38 5 c65 10 43 -18 -38 -49
-112 -43 -105 -26 -87 -211 9 -88 17 -162 19 -164 6 -7 105 30 143 54 19 12
52 25 74 28 21 3 39 7 40 9 55 86 66 111 76 173 6 39 18 100 26 136 8 37 14
107 14 155 0 101 8 164 21 164 5 0 9 -37 8 -82z m1587 -14 c18 -29 40 -58 48
-67 8 -8 25 -34 37 -57 27 -52 11 -71 -32 -37 -33 26 -98 144 -104 187 -2 16
-7 35 -11 42 -23 38 34 -25 62 -68z m-2776 -154 c0 -6 11 -8 25 -4 30 8 33
-10 6 -45 -13 -17 -30 -24 -65 -27 -62 -6 -73 17 -28 58 32 28 62 37 62 18z
m208 -150 c11 -24 164 -156 227 -195 17 -11 65 -50 108 -88 69 -62 81 -69 110
-64 38 6 83 -15 92 -43 14 -44 -43 -140 -83 -140 -15 0 -64 32 -97 63 -11 11
-44 37 -72 59 -29 22 -53 43 -53 47 0 3 -40 34 -88 68 -48 34 -101 76 -117 93
-16 16 -34 30 -41 30 -6 0 -17 7 -25 16 -7 8 -30 24 -51 35 -45 23 -50 11 -18
-44 23 -39 36 -132 19 -142 -17 -11 -31 10 -36 52 -10 96 -15 114 -32 111 -12
-3 -16 -15 -15 -53 0 -72 12 -169 24 -201 6 -15 10 -54 9 -88 -2 -39 4 -75 14
-100 21 -48 31 -136 18 -155 -8 -12 -16 -10 -47 14 -84 64 -307 304 -338 364
-10 20 -27 42 -37 49 -27 18 -25 74 2 98 12 10 39 43 61 72 40 54 60 62 101
41 18 -10 24 -8 44 17 13 16 23 37 23 46 0 20 46 58 71 58 22 0 23 -4 7 -29
-14 -23 -4 -51 17 -51 11 0 15 6 11 18 -7 23 35 96 58 100 10 2 29 -6 42 -19
27 -26 41 -21 25 9 -6 12 -11 24 -11 27 0 14 67 -51 78 -75z m-3013 -60 c0 -8
-8 -16 -17 -18 -13 -2 -18 3 -18 18 0 15 5 20 18 18 9 -2 17 -10 17 -18z
m2333 -55 c14 -31 2 -67 -30 -89 -31 -22 -38 -20 -38 10 0 26 38 104 50 104 4
0 12 -11 18 -25z m22 -70 c0 -8 -4 -15 -10 -15 -5 0 -7 7 -4 15 4 8 8 15 10
15 2 0 4 -7 4 -15z m-2847 -106 c-25 -17 -46 -17 -91 -3 -31 9 3 22 58 21 l61
0 -28 -18z m-109 -14 c3 -10 -1 -15 -12 -15 -10 0 -24 -6 -30 -12 -10 -10 -15
-10 -22 2 -7 11 -2 18 18 26 36 16 39 16 46 -1z m3551 -115 c14 -46 25 -64 42
-71 13 -5 25 -20 29 -36 4 -15 15 -40 25 -55 23 -31 23 -47 3 -73 -8 -11 -19
-37 -25 -58 -19 -72 -32 -45 -82 168 -22 92 -33 200 -20 192 5 -3 18 -34 28
-67z m-3590 40 c9 -15 -4 -50 -20 -50 -13 0 -25 21 -25 46 0 16 36 19 45 4z
m4645 -79 c0 -38 -16 -48 -30 -21 -9 16 -8 25 1 36 18 22 29 17 29 -15z m-127
-73 c7 -69 -8 -88 -86 -110 -71 -19 -107 -13 -107 17 0 33 84 107 145 126 38
13 43 9 48 -33z m117 -18 c0 -5 -4 -10 -10 -10 -5 0 -10 5 -10 10 0 6 5 10 10
10 6 0 10 -4 10 -10z m-1797 -202 c34 -23 73 -52 86 -64 13 -13 40 -31 60 -41
20 -10 56 -36 81 -59 25 -22 68 -53 95 -69 28 -16 57 -35 65 -42 8 -8 24 -20
35 -28 20 -13 20 -14 -4 -39 -27 -29 -62 -34 -81 -12 -23 29 -107 76 -124 70
-11 -4 -16 -1 -16 10 0 9 -6 13 -14 10 -8 -3 -37 9 -64 27 -40 26 -50 38 -49
57 2 21 -8 30 -60 56 -34 17 -72 41 -85 52 -13 12 -33 27 -46 33 -21 11 -21
13 -7 40 27 53 49 52 128 -1z m-2461 -62 c17 -17 16 -126 -3 -176 -6 -19 -13
-41 -15 -48 -5 -18 -35 -27 -43 -13 -10 15 -3 157 9 191 4 14 11 33 14 43 7
21 20 22 38 3z m3738 -46 c-19 -12 -50 -13 -50 -2 0 5 10 14 23 19 26 13 50
-2 27 -17z m-230 -70 c0 -23 -66 -71 -86 -63 -21 8 -17 18 21 52 41 36 65 40
65 11z m-1210 -35 c13 -14 18 -25 11 -25 -16 0 -61 30 -61 41 0 17 27 9 50
-16z m141 -115 c23 0 81 -49 58 -50 -17 0 -99 55 -99 67 0 4 5 2 12 -5 7 -7
20 -12 29 -12z m620 -69 l43 -38 -29 -35 c-17 -20 -43 -52 -58 -72 -15 -20
-35 -36 -44 -36 -9 0 -38 15 -65 33 -44 29 -48 35 -43 62 3 17 25 50 52 77 59
60 85 62 144 9z m-3367 -131 c22 -8 24 -14 20 -47 -14 -107 -37 -143 -89 -143
-31 0 -20 163 12 188 20 15 24 15 57 2z m3051 -1 c11 -17 2 -18 -19 -3 -17 12
-17 14 -4 14 9 0 20 -5 23 -11z m-3168 -31 c-3 -8 -6 -5 -6 6 -1 11 2 17 5 13
3 -3 4 -12 1 -19z m2647 -120 c58 -48 69 -62 56 -66 -10 -4 -130 88 -130 100
0 18 24 6 74 -34z m4029 15 c-7 -2 -19 -2 -25 0 -7 3 -2 5 12 5 14 0 19 -2 13
-5z m-4247 -125 c8 -18 20 -41 27 -51 10 -14 9 -19 -3 -28 -20 -14 -99 -5
-117 14 -13 13 -12 17 11 35 14 11 26 26 26 34 0 40 37 37 56 -4z m-163 -235
c-7 -2 -19 -2 -25 0 -7 3 -2 5 12 5 14 0 19 -2 13 -5z"/>
<path d="M6898 5203 c7 -3 16 -2 19 1 4 3 -2 6 -13 5 -11 0 -14 -3 -6 -6z"/>
<path d="M6690 5190 c-25 -6 -25 -6 7 -17 18 -7 35 -8 38 -4 9 15 -19 28 -45
21z"/>
<path d="M4683 5083 c-7 -2 -13 -12 -13 -21 1 -16 2 -16 14 0 7 10 17 14 21
10 5 -4 5 -1 1 6 -4 6 -8 12 -9 11 -1 0 -8 -3 -14 -6z"/>
<path d="M5780 4775 c0 -9 9 -15 21 -15 18 0 19 2 9 15 -7 8 -16 15 -21 15 -5
0 -9 -7 -9 -15z"/>
<path d="M5865 4780 c-3 -5 1 -10 10 -10 9 0 13 5 10 10 -3 6 -8 10 -10 10 -2
0 -7 -4 -10 -10z"/>
<path d="M7100 4105 c0 -8 0 -18 -1 -22 0 -4 4 -9 10 -11 6 -2 11 8 11 22 0
14 -4 26 -10 26 -5 0 -10 -7 -10 -15z"/>
<path d="M7245 4057 c-4 -10 -5 -21 -1 -24 10 -10 18 4 13 24 -4 17 -4 17 -12
0z"/>
<path d="M6860 3707 c0 -7 9 -13 20 -14 24 -2 27 12 4 21 -22 8 -24 8 -24 -7z"/>
<path d="M3297 3023 c-2 -4 -7 -25 -11 -45 -4 -21 -11 -38 -16 -38 -6 0 -10
-5 -10 -11 0 -6 7 -9 16 -7 20 4 50 86 36 100 -5 5 -12 6 -15 1z"/>
<path d="M3700 2791 c0 -12 5 -21 10 -21 6 0 10 6 10 14 0 8 -4 18 -10 21 -5
3 -10 -3 -10 -14z"/>
<path d="M6020 2520 c0 -5 17 -20 38 -34 20 -13 43 -31 51 -40 7 -8 17 -13 22
-10 14 8 -33 82 -56 88 -31 9 -55 7 -55 -4z"/>
<path d="M4255 2447 c-4 -10 -5 -21 -1 -24 10 -10 18 4 13 24 -4 17 -4 17 -12
0z"/>
<path d="M5932 1718 c-14 -14 -16 -58 -4 -58 5 0 15 11 22 25 16 29 2 53 -18
33z"/>
<path d="M2230 3979 c0 -5 -5 -7 -11 -3 -7 4 -10 1 -7 -6 7 -23 28 -23 28 -1
0 12 -2 21 -5 21 -3 0 -5 -5 -5 -11z"/>
<path d="M10936 3836 c3 -9 11 -16 16 -16 13 0 5 23 -10 28 -7 2 -10 -2 -6
-12z"/>
<path d="M10973 3838 c2 -7 10 -13 17 -13 7 0 15 6 18 13 2 7 -5 12 -18 12
-13 0 -20 -5 -17 -12z"/>
<path d="M9143 3790 c-35 -14 -27 -27 20 -32 43 -5 80 9 74 27 -5 13 -66 17
-94 5z"/>
<path d="M9143 3678 c-8 -10 -8 -17 0 -29 19 -24 167 -14 167 12 0 13 -12 16
-86 24 -53 5 -73 3 -81 -7z"/>
<path d="M12160 3605 c0 -2 9 -9 19 -14 14 -8 20 -7 25 4 4 11 -2 15 -19 15
-14 0 -25 -2 -25 -5z"/>
<path d="M12773 3518 c-19 -25 -26 -41 -15 -34 6 3 13 2 17 -4 12 -20 25 -10
25 20 0 32 -11 39 -27 18z"/>
<path d="M9068 3003 c7 -3 16 -2 19 1 4 3 -2 6 -13 5 -11 0 -14 -3 -6 -6z"/>
<path d="M2624 2059 c-3 -6 -1 -16 5 -22 8 -8 11 -5 11 11 0 24 -5 28 -16 11z"/>
<path d="M12755 2022 c-17 -10 -44 -35 -62 -55 -18 -20 -37 -37 -42 -37 -6 0
-8 -7 -5 -15 8 -19 -12 -44 -44 -56 -35 -13 -53 -66 -41 -119 6 -27 6 -46 1
-48 -5 -1 -7 -14 -4 -28 3 -16 7 -21 12 -14 5 7 9 2 12 -14 3 -14 1 -26 -4
-26 -13 0 -38 -26 -38 -40 0 -6 -11 -15 -25 -20 -14 -5 -25 -15 -25 -21 0 -7
-3 -10 -6 -6 -6 6 -40 -51 -84 -140 -11 -23 -25 -45 -31 -48 -21 -14 -2 -66
44 -119 26 -30 47 -57 47 -61 0 -3 -29 -4 -64 -3 -71 3 -85 -3 -65 -26 51 -56
55 -73 19 -78 -16 -3 -31 0 -33 6 -5 14 -39 -4 -45 -24 -3 -9 3 -11 22 -8 23
5 27 2 24 -16 -4 -31 -67 -36 -75 -7 -6 23 -42 29 -47 9 -2 -7 -9 -29 -16 -48
-6 -19 -12 -43 -12 -52 1 -21 -30 -40 -61 -38 -54 5 -76 -1 -82 -19 -3 -11
-21 -25 -40 -31 -18 -6 -38 -17 -44 -23 -6 -8 -41 -14 -88 -15 -103 -4 -116
-8 -109 -37 4 -15 -1 -28 -14 -40 -11 -10 -20 -24 -20 -31 0 -17 73 -31 78
-15 2 6 17 11 32 11 16 0 32 5 35 10 3 6 15 10 25 10 14 0 18 6 15 25 -1 15 3
25 11 25 7 0 14 6 17 13 3 8 7 6 12 -6 4 -10 20 -31 36 -47 35 -35 37 -56 5
-64 -13 -3 -33 -21 -45 -38 -14 -23 -21 -27 -21 -15 0 9 -7 17 -16 17 -15 0
-15 -2 0 -25 21 -33 21 -94 -1 -102 -27 -11 -64 19 -95 77 -60 114 -70 120
-89 63 -6 -21 -15 -42 -19 -48 -10 -13 3 -47 24 -64 24 -20 19 -53 -11 -77
-26 -21 -27 -24 -16 -65 6 -23 9 -48 6 -55 -6 -17 -37 -23 -58 -11 -15 8 -23
5 -41 -17 -13 -14 -27 -26 -31 -26 -4 -1 -21 -19 -38 -40 -27 -35 -43 -43 -80
-43 -5 0 -10 -21 -9 -46 1 -25 -5 -59 -13 -74 -8 -15 -11 -32 -8 -37 4 -6 261
-10 696 -10 l689 0 0 1020 c0 561 -3 1020 -7 1020 -5 0 -22 -8 -38 -18z"/>
<path d="M12277 1196 c-8 -20 19 -28 36 -12 7 8 22 16 33 19 10 2 0 5 -22 6
-28 1 -44 -4 -47 -13z"/>
<path d="M9357 564 c6 -15 23 -19 23 -5 0 5 -7 11 -14 14 -10 4 -13 1 -9 -9z"/>
<path d="M11142 109 c2 -6 8 -10 13 -10 5 0 11 4 13 10 2 6 -4 11 -13 11 -9 0
-15 -5 -13 -11z"/>
<path d="M11190 106 c0 -9 5 -16 10 -16 6 0 10 4 10 9 0 6 -4 13 -10 16 -5 3
-10 -1 -10 -9z"/>
<path d="M9524 60 c-28 -11 -36 -24 -28 -44 5 -14 30 -16 182 -16 157 0 174 2
156 15 -10 8 -38 15 -60 15 -23 0 -58 7 -78 15 -20 9 -51 15 -69 14 -18 -1
-43 1 -57 4 -14 3 -35 2 -46 -3z"/>
<path d="M10900 15 c-11 -13 -2 -15 69 -15 57 0 80 3 75 11 -3 6 -17 9 -30 6
-14 -2 -27 0 -30 4 -9 15 -71 10 -84 -6z"/>
</g>
</svg>
